<?xml version="1.0" encoding="UTF-8" standalone="no"?>
<!-- Created with Inkscape (http://www.inkscape.org/) -->

<svg
   version="1.1"
   id="svg18"
   width="823.76001"
   height="177.46667"
   viewBox="0 0 823.76001 177.46667"
   xmlns="http://www.w3.org/2000/svg"
   xmlns:svg="http://www.w3.org/2000/svg">
  <defs
     id="defs22" />
  <g
     id="g26"
     transform="matrix(1.3333333,0,0,-1.3333333,0,177.46667)">
    <g
       id="g28"
       transform="scale(0.1)">
      <path
         d="m 467.113,709.348 v 140.09 c 0,15.468 26.575,28.777 80.793,39.812 54.297,9.961 94.375,15.488 170.723,15.488 76.406,0 116.512,-5.527 170.742,-16.57 54.258,-9.953 80.859,-23.262 80.859,-38.73 v -140.09 z m 668.467,-422.77 v 591.746 c 0,45.379 -42.51,85.254 -128.88,117.364 -86.333,32.082 -165.141,48.722 -288.071,48.722 -122.871,0 -201.68,-16.64 -288.047,-48.722 -86.34,-32.11 -129.523,-71.985 -129.523,-117.364 V 286.578 H 466.734 V 587.707 H 969.75 V 286.578 h 165.83"
         style="fill:#b20d35;fill-opacity:1;fill-rule:nonzero;stroke:none"
         id="path30" />
      <path
         d="m 1429.96,907.738 c -4.75,62.567 -11.63,125.382 -25.08,186.742 -3.87,17.56 -7.88,34.56 -13.21,51.02 -6.66,20.46 -15.33,40.12 -28.36,58.96 -24.65,35.69 -59.98,61.76 -100.84,76.04 -96.1,33.57 -304.466,50.39 -513.001,50.46 -208.535,-0.07 -397.617,-16.89 -493.762,-50.46 -10.867,-3.8 -21.328,-8.5 -31.316,-13.93 115.515,13.27 237.566,19.95 379.043,19.98 242.988,-0.06 485.716,-19.66 597.716,-58.78 47.6,-16.63 88.79,-47 117.48,-88.59 15.14,-21.97 25.3,-44.87 33.06,-68.72 6.22,-19.17 10.87,-38.96 15.37,-59.43 15.66,-71.507 23.73,-144.671 29.22,-217.581 5.64,-74.707 7.94,-149.676 7.84,-224.59 0.1,-74.91 -2.2,-130.632 -7.84,-205.339 -1.55,-20.743 -3.36,-41.489 -5.46,-62.219 0.25,0.808 0.58,1.578 0.85,2.398 5.33,16.473 9.34,33.453 13.21,51.02 13.45,61.367 20.33,104.953 25.08,167.5 4.83,64.133 6.79,128.457 6.71,192.746 0.08,64.305 -1.88,128.66 -6.71,192.773"
         style="fill:#6ea31b;fill-opacity:1;fill-rule:nonzero;stroke:none"
         id="path32" />
      <path
         d="M 6.70313,423.195 C 11.4492,360.617 18.3633,297.828 31.793,236.48 35.6602,218.91 39.6719,201.91 44.9766,185.449 51.6445,164.969 60.3281,145.328 73.3633,126.48 97.9922,90.7891 133.336,64.7188 174.195,50.4414 270.297,16.8516 478.656,0.03125 687.191,0 c 208.536,0.03125 397.649,16.8516 493.769,50.4414 10.87,3.8203 21.33,8.5078 31.32,13.9102 C 1096.76,51.1016 974.684,44.4219 833.238,44.3594 590.25,44.4492 347.496,64.0508 235.523,103.191 c -47.636,16.61 -88.8,46.957 -117.492,88.559 -15.164,21.969 -25.3005,44.852 -33.0662,68.711 -6.2109,19.211 -10.8671,38.988 -15.3515,59.461 -15.6524,71.488 -23.7305,144.672 -29.2461,217.57 -5.625,74.699 -7.9102,149.688 -7.8125,224.59 -0.0977,74.922 2.1875,130.625 7.8125,205.332 1.582,20.742 3.3789,41.506 5.4883,62.206 -0.2657,-0.78 -0.586,-1.56 -0.8789,-2.38 C 39.6719,1010.79 35.6602,993.781 31.793,976.234 18.3633,914.836 11.4492,871.281 6.70313,808.715 1.85156,744.602 -0.113281,680.266 0.00390625,615.969 -0.113281,551.664 1.85156,487.328 6.70313,423.195"
         style="fill:#6ea31b;fill-opacity:1;fill-rule:nonzero;stroke:none"
         id="path34" />
      <path
         d="m 3043.47,701.457 c -9.51,-1.367 -25.89,-2.031 -49.06,-2.031 h -189.67 v 121.972 h 189.67 c 23.61,0 40.05,-0.625 49.25,-1.855 9.2,-1.25 17.9,-4.18 26.1,-8.711 17.23,-9.324 25.87,-26.133 25.87,-50.43 0,-24.316 -8.64,-41.132 -25.87,-50.429 -8,-4.336 -16.73,-7.168 -26.29,-8.516 z m 153.4,58.273 c 0,22.235 -4.22,43.153 -12.62,62.696 -8.87,20.215 -22.29,36.258 -40.22,48.054 -15.47,10.235 -33.57,17.364 -54.36,21.465 -20.79,4.075 -48.91,6.125 -84.36,6.125 H 2703.34 V 432.922 h 101.4 v 189.824 h 125.71 c 11.14,-11.289 35.69,-40.586 37.06,-42.168 22.62,-26.64 43.95,-54.394 63.66,-83.242 11.02,-16.074 21.77,-32.461 31.37,-49.473 2.52,-4.472 5.29,-9.492 8.18,-14.941 h 111.2 c -33.57,69.933 -73.71,133.808 -125.31,192.219 l 13.8,1.347 c 84.29,12.957 126.46,57.364 126.46,133.242"
         style="fill:#b20d35;fill-opacity:1;fill-rule:nonzero;stroke:none"
         id="path36" />
      <path
         d="m 4981.88,701.457 c -9.51,-1.367 -25.85,-2.031 -49.04,-2.031 h -189.67 v 121.972 h 189.67 c 23.65,0 40.06,-0.625 49.26,-1.855 9.14,-1.25 17.85,-4.18 26.05,-8.711 17.27,-9.324 25.92,-26.133 25.92,-50.43 0,-24.316 -8.65,-41.132 -25.92,-50.429 -7.94,-4.336 -16.68,-7.168 -26.27,-8.516 z m 153.4,58.273 c 0,22.235 -4.24,43.153 -12.65,62.696 -8.85,20.215 -22.23,36.258 -40.2,48.054 -15.43,10.235 -33.59,17.364 -54.37,21.465 -20.77,4.075 -48.89,6.125 -84.32,6.125 H 4641.73 V 432.922 h 101.44 v 189.824 h 125.71 c 11.11,-11.289 35.7,-40.586 37.03,-42.168 22.63,-26.64 43.96,-54.394 63.69,-83.242 11,-16.074 21.78,-32.461 31.37,-49.473 2.52,-4.472 5.29,-9.492 8.18,-14.941 h 111.19 c -33.55,69.933 -73.73,133.808 -125.33,192.219 l 13.81,1.347 c 84.28,12.957 126.46,57.364 126.46,133.242"
         style="fill:#b20d35;fill-opacity:1;fill-rule:nonzero;stroke:none"
         id="path38" />
      <path
         d="m 4458.86,789.387 c 0,10.019 -17.17,18.625 -52.21,25.058 -35.06,7.149 -61.35,10.684 -110.7,10.684 -49.38,0 -75.67,-3.535 -110.71,-9.981 -35.02,-7.136 -52.2,-15.742 -52.2,-25.761 V 541.613 c 0,-10.039 17.18,-18.593 52.2,-25.047 35.04,-7.148 61.33,-10.714 110.71,-10.714 49.35,0 75.64,3.566 110.7,10 35.04,7.168 52.21,15.722 52.21,25.761 z m 18.63,-338.301 c -54.37,-20.215 -104.06,-30.703 -181.54,-30.703 -77.44,0 -127.15,10.488 -181.58,30.703 -54.42,20.246 -81.66,45.352 -81.66,73.984 v 280.86 c 0,28.613 27.24,53.75 81.66,73.976 54.43,20.223 104.14,30.711 181.58,30.711 77.48,0 127.17,-10.488 181.54,-30.711 54.47,-20.226 81.68,-45.363 81.68,-73.976 V 525.07 c 0,-28.632 -27.21,-53.738 -81.68,-73.984"
         style="fill:#b20d35;fill-opacity:1;fill-rule:nonzero;stroke:none"
         id="path40" />
      <path
         d="M 2594.86,898.07 H 2494.4 V 432.922 h 100.46 V 898.07"
         style="fill:#b20d35;fill-opacity:1;fill-rule:nonzero;stroke:none"
         id="path42" />
      <path
         d="m 3942.53,748.949 0.08,-0.246 c 26.95,69.121 51.03,130.645 58.96,150.586 h -104.45 c -15.94,-44.805 -112.77,-300.867 -112.77,-300.867 -0.75,1.933 -1.49,3.855 -2.25,5.789 -2.05,5.344 -95.25,260.703 -106.99,269.277 -11.78,8.594 -20.16,10.235 -30.53,12.285 -7.46,1.485 -15.14,2.012 -22.71,2.012 -1.29,0 -2.47,-0.097 -3.72,-0.156 -1.23,0.059 -2.38,0.156 -3.65,0.156 -7.58,0 -15.27,-0.527 -22.71,-2.012 -10.35,-2.05 -18.79,-3.691 -30.53,-12.285 -11.78,-8.574 -104.94,-263.933 -107.05,-269.277 -0.7,-1.934 -1.47,-3.856 -2.21,-5.789 0,0 -96.81,256.062 -112.75,300.867 h -104.46 c 7.95,-19.961 32.06,-81.66 59.05,-150.867 h 0.06 l 42.95,-110.285 c 30.05,-77.09 54.8,-140.801 54.8,-140.801 0.1,-0.273 0.18,-0.508 0.31,-0.781 l 24.77,-63.633 h 72.97 l 116.5,297.519 0.06,-0.183 11.87,30.457 0.02,-0.117 0.08,0.117 17.42,-44.727 110.84,-283.066 h 72.29 l 123.75,316.027"
         style="fill:#b20d35;fill-opacity:1;fill-rule:nonzero;stroke:none"
         id="path44" />
      <path
         d="m 1973.59,699.426 v 88.301 c 0,9.746 16.75,18.125 50.92,25.089 34.24,6.278 59.5,9.754 107.6,9.754 48.17,0 73.45,-3.476 107.64,-10.429 34.19,-6.289 50.98,-14.668 50.98,-24.414 V 699.426 Z M 2394.96,432.922 V 805.93 c 0,28.613 -26.81,53.75 -81.24,73.976 -54.43,20.223 -104.12,30.711 -181.61,30.711 -77.44,0 -127.11,-10.488 -181.55,-30.711 -54.43,-20.226 -81.65,-45.363 -81.65,-73.976 V 432.922 h 104.43 v 189.824 h 317.07 V 432.922 h 104.55"
         style="fill:#b20d35;fill-opacity:1;fill-rule:nonzero;stroke:none"
         id="path46" />
      <path
         d="m 5497.39,720.988 c 0,0 -4.43,4.004 -11.42,10.559 l 110.6,88.797 -0.06,0.058 42.8,34.864 5.5,4.589 c 6.02,4.922 11.06,9.004 15.36,12.403 l 33.26,27.109 h -134.12 l -242.99,-198.23 v 198.23 H 5214.81 V 434.242 H 5316.4 V 594.73 l 70,56.571 c 0,0 27.48,22.031 27.5,22.062 2.03,1.551 40.7,-44.562 42.4,-46.574 22.62,-26.66 43.94,-54.375 63.65,-83.223 11.04,-16.101 21.78,-32.507 31.39,-49.5 8.75,-15.441 20.04,-37.277 30.88,-61.144 h 109.41 c -46.62,109.394 -105.72,204.687 -194.24,288.066"
         style="fill:#b20d35;fill-opacity:1;fill-rule:nonzero;stroke:none"
         id="path48" />
      <path
         d="m 6075.87,693.82 c -19.51,5.918 -39.49,10.02 -59.63,13.203 -18.95,3.008 -38.09,5.196 -57.15,7.532 l -33.08,4.394 c -64.61,7.703 -95.55,19.395 -95.55,49.539 0,49.434 66.99,58.098 101.8,59.453 20.17,0.801 34.57,0 57.59,-3.3 23.03,-3.321 59.75,-11.649 73.34,-26.7 0.2,-0.156 104.96,16.114 106.8,16.446 -3.67,6.515 -4.8,7.511 -4.8,7.511 -27.76,38.348 -97.86,87.04 -204.15,88.711 -115.41,0.692 -222.67,-40.988 -221.67,-151.3 0.56,-63.496 46.89,-103.184 102.32,-119.961 19.53,-5.918 39.49,-10 59.65,-13.184 18.96,-3.016 38.06,-5.215 57.15,-7.527 l 33.08,-4.395 c 64.61,-7.726 93.64,-19.453 95.55,-49.543 3.22,-50.242 -57.74,-58.738 -95.45,-62.051 -14.43,-1.269 -29.26,-1.64 -43.75,-0.761 -47.25,2.832 -88.54,16.738 -116.07,36.183 l -112.68,-17.55 c 25.61,-42.872 88.05,-101.602 238.22,-100.165 120.37,1.172 221.82,43.211 220.82,153.524 -0.56,63.496 -46.89,103.184 -102.34,119.941"
         style="fill:#b20d35;fill-opacity:1;fill-rule:nonzero;stroke:none"
         id="path50" />
    </g>
  </g>
</svg>
