<?xml version="1.0" encoding="utf-8"?>
<!-- Generator: Adobe Illustrator 27.2.0, SVG Export Plug-In . SVG Version: 6.00 Build 0)  -->
<svg version="1.1" xmlns="http://www.w3.org/2000/svg" xmlns:xlink="http://www.w3.org/1999/xlink" x="0px" y="0px"
	 viewBox="0 0 382 262" style="enable-background:new 0 0 450 450;" xml:space="preserve">
<g transform="translate(-32, -92)">
	<g id="Background">
	</g>
	<g id="Objects">
		<g>
			<g>
				<g>
					<polygon style="fill:#192228;" points="36.34,277.08 36.57,188.63 54.26,188.68 68.51,195.85 82.81,188.75 100.49,188.8 
						100.26,277.25 				"/>
					<path style="fill:#E8E6DD;" d="M39.92,191.99l13.54,0.04l15.05,7.57l15.09-7.49l13.54,0.04l-0.22,81.75l-16.39-0.04l0.18-66.58
						l-4.08,2.02l-0.17,64.54l-16.29-0.04l0.17-64.54l-4.17-2.05l-0.18,66.58l-16.29-0.04L39.92,191.99 M33.23,185.27l-0.02,6.71
						l-0.22,81.75l-0.02,6.71l6.71,0.02l16.29,0.04l4.84,0.01l12.98,0.03l0,0l0.09,0l2.54,0.01l6.71,0.02l13.76,0.04l6.71,0.02
						l0.02-6.71l0.22-81.75l0.02-6.71l-6.71-0.02l-13.54-0.04l-1.58,0l-1.42,0.7l-12.08,6l-12.05-6.07l-1.41-0.71l-1.58,0
						l-13.54-0.04L33.23,185.27L33.23,185.27z"/>
				</g>
				<g>
					<polygon style="fill:#192228;" points="97.62,277.25 97.85,188.89 144.09,189.02 131.46,208.01 120.8,207.98 120.77,217.4 
						126.9,211.31 126.83,238.1 120.7,244.19 120.69,247.96 141.08,237.84 140.97,277.36 				"/>
					<path style="fill:#E8E6DD;" d="M101.2,192.26l36.65,0.1l-8.18,12.3l-12.22-0.03l-0.06,20.87l6.12-6.09l-0.05,17.31l-6.12,6.09
						l-0.05,18.94l4.07,0.01l0.03-10.38l16.31-8.1L137.63,274l-36.65-0.1L101.2,192.26 M94.51,185.53l-0.02,6.71l-0.22,81.65
						l-0.02,6.71l6.71,0.02l36.65,0.1l6.71,0.02l0.02-6.71l0.08-30.74l0.03-10.85l-9.72,4.83l-4.58,2.27l0.03-0.03l0.01-2.78
						l0.05-17.31l0.02-8.05l3.01,0.01l2-3l8.18-12.3l6.91-10.39l-12.47-0.03l-36.65-0.1L94.51,185.53L94.51,185.53z"/>
				</g>
				<g>
					<polygon style="fill:#192228;" points="150.55,277.39 150.72,213.43 138.57,250.95 138.56,189 186,189.13 185.88,233.2 
						180.08,233.18 179.24,230.85 173.72,213.49 173.55,277.45 				"/>
					<path style="fill:#E8E6DD;" d="M141.92,192.36l40.72,0.11l-0.1,37.36l-0.1,0l-7.98-25.07l-4.07-0.01l-0.18,69.33l-16.29-0.04
						l0.18-69.33l-4.07-0.01l-8.11,25.02L141.92,192.36 M135.21,185.64l0,6.72l0,37.36l0,42.44l12.1-37.33l-0.1,39.19l-0.02,6.71
						l6.71,0.02l16.29,0.04l6.71,0.02l0.02-6.71l0.1-39.19l0.51,1.62l4.89,0.01l0.1,0l6.71,0.02l0.02-6.71l0.1-37.36l0.02-6.71
						l-6.71-0.02l-40.72-0.11L135.21,185.64L135.21,185.64z"/>
				</g>
				<g>
					<polygon style="fill:#192228;" points="195.34,277.51 195.51,213.55 183.36,251.07 183.35,189.12 230.79,189.25 230.67,233.28 
						224.88,233.33 224.03,230.97 218.51,213.61 218.34,277.57 				"/>
					<path style="fill:#E8E6DD;" d="M186.71,192.48l40.72,0.11l-0.1,37.36l-0.1,0l-7.98-25.07l-4.07-0.01l-0.18,69.33l-16.29-0.04
						l0.18-69.33l-4.07-0.01l-8.11,25.02L186.71,192.48 M180,185.76l0,6.72l0,37.36l0,42.44l12.1-37.33l-0.1,39.19l-0.02,6.71
						l6.71,0.02l16.29,0.04l6.71,0.02l0.02-6.71l0.1-39.19l0.51,1.62l4.89,0.01l0.1,0l6.71,0.02l0.02-6.71l0.1-37.36l0.02-6.71
						l-6.71-0.02l-40.72-0.11L180,185.76L180,185.76z"/>
				</g>
				<g>
					
						<rect x="262.48" y="211.85" transform="matrix(2.655854e-03 -1 1 2.655854e-03 72.3219 539.6652)" style="fill:#192228;" width="88.46" height="43.46"/>
					<path style="fill:#E8E6DD;" d="M288.44,192.65l36.75,0.1l-0.22,81.75l-16.29-0.04l0.1-36.75l-4.16-4.19l-0.11,40.93l-16.29-0.04
						L288.44,192.65 M308.83,220.3l0.04-15.27l-4.17-0.01l-0.03,11.2L308.83,220.3 M281.76,185.93l-0.02,6.71l-0.22,81.75l-0.02,6.71
						l6.71,0.02l16.29,0.04l6.71,0.02l13.76,0.04l6.71,0.02l0.02-6.71l0.22-81.75l0.02-6.71l-6.71-0.02l-36.75-0.1L281.76,185.93
						L281.76,185.93z"/>
				</g>
				<g>
					<polygon style="fill:#192228;" points="325.68,277.85 325.92,189.4 348.92,189.46 348.76,248.62 369.25,238.45 369.14,277.97 
										"/>
					<path style="fill:#E8E6DD;" d="M329.26,192.76l16.29,0.04l-0.19,69.43l4.17,0.01l0.03-10.28l16.31-8.1l-0.08,30.74l-36.75-0.1
						L329.26,192.76 M322.58,186.04l-0.02,6.71l-0.22,81.75l-0.02,6.71l6.71,0.02l36.75,0.1l6.71,0.02l0.02-6.71l0.08-30.74
						l0.03-10.85l-9.72,4.83l-10.77,5.35l0.13-50.38l0.02-6.71l-6.71-0.02l-16.29-0.04L322.58,186.04L322.58,186.04z"/>
				</g>
				<g>
					<polygon style="fill:#192228;" points="366.5,277.96 366.74,189.51 389.73,189.57 389.58,248.73 410.07,238.56 409.96,278.08 
										"/>
					<path style="fill:#E8E6DD;" d="M370.08,192.87l16.29,0.04l-0.19,69.43l4.17,0.01l0.03-10.28l16.31-8.1l-0.08,30.74l-36.75-0.1
						L370.08,192.87 M363.39,186.15l-0.02,6.71l-0.22,81.75l-0.02,6.71l6.71,0.02l36.75,0.1l6.71,0.02l0.02-6.71l0.08-30.74
						l0.03-10.85l-9.72,4.83l-10.77,5.35l0.13-50.38l0.02-6.71l-6.71-0.02l-16.29-0.04L363.39,186.15L363.39,186.15z"/>
				</g>
			</g>
			<g>
				<path style="fill:#192228;" d="M80.52,273.85l0.18-66.58l-4.08,2.02l-0.17,64.54l-16.29-0.04l0.17-64.54l-4.17-2.05l-0.18,66.58
					l-16.29-0.04l0.22-81.75l13.54,0.04l15.05,7.57l15.09-7.49l13.54,0.04l-0.22,81.75L80.52,273.85z"/>
				<path style="fill:#192228;" d="M117.45,204.62l-0.06,20.87l6.12-6.09l-0.05,17.31l-6.12,6.09l-0.05,18.94l4.07,0.01l0.03-10.38
					l16.31-8.1L137.63,274l-36.65-0.1l0.22-81.65l36.65,0.1l-8.18,12.3L117.45,204.62z"/>
				<path style="fill:#192228;" d="M182.64,192.47l-0.1,37.36l-0.1,0l-7.98-25.07l-4.07-0.01l-0.18,69.33l-16.29-0.04l0.18-69.33
					l-4.07-0.01l-8.11,25.02l0-37.36L182.64,192.47z"/>
				<path style="fill:#192228;" d="M227.43,192.59l-0.1,37.36l-0.1,0l-7.98-25.07l-4.07-0.01l-0.18,69.33l-16.29-0.04l0.18-69.33
					l-4.07-0.01l-8.11,25.02l0-37.36L227.43,192.59z"/>
				<path style="fill:#192228;" d="M308.69,274.46l0.1-36.75l-4.16-4.19l-0.11,40.93l-16.29-0.04l0.22-81.75l36.75,0.1l-0.22,81.75
					L308.69,274.46z M308.87,205.03l-4.17-0.01l-0.03,11.2l4.16,4.08L308.87,205.03z"/>
				<path style="fill:#192228;" d="M345.55,192.8l-0.19,69.43l4.17,0.01l0.03-10.28l16.31-8.1l-0.08,30.74l-36.75-0.1l0.22-81.75
					L345.55,192.8z"/>
				<path style="fill:#192228;" d="M386.37,192.91l-0.19,69.43l4.17,0.01l0.03-10.28l16.31-8.1l-0.08,30.74l-36.75-0.1l0.22-81.75
					L386.37,192.91z"/>
			</g>
			<g>
				<g>
					<g>
						<path style="fill:#E8E6DD;" d="M258.08,350.33c-0.17,0.03-0.35,0.05-0.52,0.05c-0.8,0-1.56-0.36-2.06-0.98
							c-0.51-0.62-0.71-1.43-0.56-2.21c2.34-12.12,4.23-22.76,5.6-31.63c0.02-0.15,0.05-0.29,0.07-0.43
							c-0.55,0.07-1.13-0.04-1.64-0.33c-1.17-0.66-1.67-2.09-1.17-3.34c0.42-1.05,1.13-2.62,2.12-4.67c0.96-2.01,1.7-3.7,2.25-5.17
							c0.48-1.26,0.71-2.48,0.71-3.72c0-0.05,0-0.11,0-0.16c0.35-5.54-0.63-9.43-2.91-11.57c-0.49-0.49-0.8-0.68-0.93-0.75
							c-0.21,0.08-0.4,0.21-0.58,0.39c-0.27,0.27-0.72,0.81-1.29,1.86c-0.7,1.28-1.54,2.41-2.5,3.37c-0.39,0.39-0.88,0.64-1.39,0.73
							c-0.62,0.12-1.29,0.02-1.86-0.32c-1.05-0.62-1.56-1.87-1.22-3.04c8.72-30.99,4.43-35.99,2.9-36.78
							c-0.64-0.33-1.11-0.9-1.32-1.58c-0.51,0.09-1.11,0.13-1.81,0.12l-1.75,0c-0.08,0-0.16,0-0.24-0.01l-0.27-0.03
							c0.71,0.37,1.61,0.81,2.75,1.31c1.23,0.54,1.87,1.92,1.5,3.21c-0.29,0.99-1.11,1.7-2.07,1.88c-0.3,0.06-0.61,0.06-0.92,0.02
							c-5.11-0.8-10.11-2.2-14.86-4.16c-0.42-0.09-0.87-0.26-1.37-0.51l-1.56-0.78c-0.16-0.05-0.29-0.09-0.38-0.12
							c-0.65-0.09-1.25-0.43-2.5-1.19l-1.4-0.71c-0.68-0.24-1.7-0.85-3.98-2.31l-2.85-1.72c-0.1-0.06-0.2-0.13-0.3-0.21l-1.23-0.99
							l-0.33-0.16c-0.1-0.05-0.2-0.11-0.29-0.17l-0.87-0.58c-0.1-0.07-0.2-0.15-0.29-0.23c0,0-5.3-4.74-5.33-4.77
							c-0.36-0.35-0.84-0.8-1.46-1.33c-0.98-0.84-1.3-1.15-1.48-1.33l-0.27-0.27c-0.51-0.21-0.95-0.58-1.26-1.07
							c-0.49-0.79-0.53-1.78-0.11-2.61l0.04-0.08c0.04-0.5,0.14-1,0.28-1.49c0.02-0.45,0.08-1,0.16-1.65
							c0.1-0.83,0.27-1.53,0.49-2.12l0.52-3.83l0-0.4c0-0.53,0.16-1.04,0.45-1.48c0.04-0.1,0.08-0.19,0.12-0.29l0.53-1.05l0.83-2.2
							c0.34-0.9,1.12-1.51,2-1.69c0.4-0.08,0.83-0.06,1.25,0.06c1.34,0.39,2.16,1.74,1.89,3.11c-0.2,1-0.5,1.94-0.88,2.8
							c-0.06,0.39-0.16,0.78-0.31,1.16c-0.05,0.26-0.12,0.52-0.23,0.77c0.01,0.93,0.09,1.93,0.24,2.99c0.01,0.05,0.03,0.1,0.04,0.14
							c0.32-0.1,1.1-0.49,2.35-1.99c0.23-0.43,0.53-0.92,0.91-1.47c0.06-0.09,0.12-0.17,0.19-0.25c0.05-0.21,0.12-0.42,0.22-0.62
							l0.29-0.58c0.08-0.17,0.19-0.33,0.3-0.47c0.66-0.82,1.35-1.94,2.04-3.31c0.05-0.1,0.1-0.19,0.17-0.28
							c0.32-0.49,0.66-1.08,1.01-1.76l0.3-0.6c0.02-0.71,0.3-1.35,0.76-1.82c0.34-0.7,0.74-1.6,1.21-2.67
							c1.41-3.2,2.29-5.15,2.71-5.97c3.04-6.04,5.54-12.35,7.44-18.75c0.27-0.91,1-1.61,1.92-1.84c0.05-0.01,0.09-0.02,0.14-0.03
							c0.88-0.17,1.79,0.11,2.42,0.75c0.74,0.75,1.13,1.73,1.15,2.79c0.71-1.08,1.14-2.1,1.28-3.03c0.02-0.12,0.04-0.24,0.08-0.35
							c0.29-0.99,1.17-3.24,5.49-11.29c2.77-5.17,3.69-9.6,2.73-13.17c-0.36-1.32,0.33-2.69,1.6-3.19c0.69-0.27,1.27-0.61,1.73-1
							c0.34-0.3,0.63-0.72,0.86-1.29c0.39-0.96,0.54-1.42,0.6-1.61c0.03-0.26,0.09-1.25,0.1-4.67c0.28-6.91,0.86-9.42,1.3-10.66
							c1.91-8.02,6.51-15.29,13.67-21.59c0.37-0.32,0.81-0.53,1.27-0.62c0.54-0.1,1.1-0.04,1.62,0.19c0.96,0.44,1.58,1.4,1.57,2.45
							c0,1.09-0.56,2.03-1.44,2.55c-0.24,0.27-0.31,0.39-0.31,0.4c-0.07,0.15-0.15,0.27-0.25,0.4c-1.13,1.5-2.17,3.01-3.09,4.46
							c-0.32,0.48-0.63,1-0.91,1.51c0.43,0.26,0.79,0.64,1.03,1.11c0.06,0.12,0.12,0.24,0.18,0.36c2.14-2.07,5.65-6.02,11.33-13.55
							c1.93-2.5,5.08-6.67,9.64-12.78c4.2-5.97,4.78-6.33,5.97-6.56c0.87-0.17,1.82,0.12,2.45,0.74c0.89,0.88,1.05,2.26,0.4,3.32
							c-9.28,14.99-15.08,24.46-17.22,28.14c-0.15,0.24-0.28,0.47-0.4,0.67c0.58,0.11,1.14,0.41,1.55,0.89
							c0.92,1.07,0.86,2.66-0.14,3.65c-0.79,0.79-2.03,1.97-3.71,3.54c-1.6,1.5-2.98,2.87-4.1,4.08c-0.87,0.94-1.54,1.9-2,2.87
							c-0.02,0.11-0.05,0.22-0.09,0.33c0.69,2.93,1.73,5.35,3.11,7.2c0.72,0.96,1.34,2,1.87,3.09c0.04-0.01,0.08-0.02,0.12-0.03
							c1.01-0.19,2.06,0.2,2.69,1.07c0.77,1.07,0.64,2.54-0.29,3.47c-0.22,0.22-0.45,0.47-0.69,0.74c0.98,2.91,1.66,5.93,2.01,8.99
							c0.19,1.56,0.38,3.27,0.57,5.13c0.09,0.9,0.17,1.71,0.24,2.45c0.23-0.47,0.47-1.01,0.74-1.63c0.06-0.15,0.14-0.29,0.23-0.42
							l0.58-0.87c0.41-0.61,1.04-1.01,1.72-1.14c0.47-0.09,0.96-0.06,1.43,0.12c1.16,0.43,1.88,1.59,1.74,2.82
							c-0.97,8.72-1.28,15.5-0.92,20.17c0.18,2.6,1.13,8.47,2.83,17.48c0.26,1.39-0.6,2.74-1.96,3.09c-0.06,0.01-0.11,0.03-0.17,0.04
							c-1.31,0.25-2.63-0.51-3.05-1.79c-0.56-1.71-0.99-2.94-1.27-3.7c-0.13-0.34-0.43-0.73-0.86-1.11
							c-0.35-0.31-0.63-0.35-0.85-0.35l0,0c-0.03,0.01-0.95,0.78-1.12,4.99c0,0.08-0.01,0.16-0.02,0.23
							c-0.18,1.42-0.23,3.63-0.14,6.57c0.09,3.23,0.13,5.11,0.13,5.91c0,0.11-0.01,0.22-0.02,0.34c-0.06,0.44-0.11,0.89-0.14,1.34
							c6.94-0.56,12.9-0.11,17.75,1.34c1.21,0.36,2,1.51,1.91,2.77c-0.09,1.21-0.98,2.21-2.17,2.43c-0.04,0.01-0.09,0.02-0.13,0.02
							c-0.93,0.13-3.24,0.51-8.92,1.56l-0.62,0.12c-3.17,0.61-5.73,1.29-7.66,2.03c0.05,2.62,0.23,5.25,0.52,7.84
							c0.16,1.35-0.72,2.6-2.04,2.92c-0.04,0.01-0.08,0.02-0.12,0.03c-1.28,0.25-2.56-0.47-3.02-1.7c-0.11-0.3-0.21-0.54-0.3-0.75
							c-0.02,0.12-0.04,0.25-0.05,0.39c-0.21,1.82-0.13,2.76-0.06,3.18c0.66,2.53,0.66,5.59,0,9.35c-0.55,3.18-0.75,6.2-0.57,8.98
							c0.15,2.45,1.08,4.65,2.84,6.74c0.48,0.57,0.7,1.3,0.62,2.04c-0.09,0.74-0.47,1.4-1.06,1.84c-0.48,0.36-0.83,0.72-1.03,1.07
							c-0.29,0.5-0.38,0.82-0.41,1c-0.04,0.24-0.07,0.63,0.01,1.26c0.09,0.73,0.2,1.08,0.26,1.23c0.19,0.49,0.46,1.13,0.83,1.95
							c0.42,0.96,0.66,1.71,0.76,2.36c2.32,6.03,2.78,8.21,2.92,9.33c1.22,7.83-0.36,16.21-4.7,24.82c-0.38,0.76-1.09,1.28-1.89,1.43
							c-0.37,0.07-0.75,0.07-1.13-0.02c-1.21-0.29-2.06-1.37-2.06-2.62c0-0.58,0.15-1.17,0.48-1.87c0.1-0.33,0.11-0.47,0.11-0.47
							c0-0.29,0.05-0.56,0.14-0.84c0.55-1.63,1.02-3.3,1.4-4.98c0.67-3.6,0.07-4.73-0.08-4.94c-0.36,0.51-0.97,1.55-1.8,3.61
							c-1.53,3.78-3.28,8.99-5.2,15.47c-0.59,1.95-2.06,6.89-4.41,14.84C260.3,348.97,260.05,349.95,258.08,350.33
							C258.08,350.33,258.08,350.33,258.08,350.33z M258.16,231.81c0.24-0.05,0.48-0.07,0.74-0.07c0.05,0,0.12-0.01,0.19-0.03
							l0.16-0.04c0.21-0.05,0.38-0.09,0.54-0.12c0.08-0.02,0.16-0.03,0.23-0.04l0.15-0.07c0.22-0.11,0.45-0.19,0.69-0.23
							c0.17-0.03,0.34-0.05,0.51-0.05l0.13,0c0.03-1.34-0.18-2.68-0.63-4.04c-0.72-2.54-1.86-4.92-3.43-7.19
							c-0.41-0.59-0.56-1.31-0.43-2.02c0.13-0.7,0.54-1.32,1.13-1.72c3.43-2.32,4.74-5.38,4.12-9.61c-0.02-0.13-0.03-0.26-0.03-0.4
							c0-0.05-0.03-0.55-0.39-2.59c-0.29-1.69-0.49-2.89-0.59-3.59c-0.13-0.89-0.09-1.99,0.12-3.43l-6.78,3.77
							c-0.07,0.04-0.13,0.07-0.2,0.1c-3.7,1.67-6.22,4.08-7.71,7.38c-1.54,3.4-2.16,6.34-1.85,8.73c0.01,0.06,0.01,0.12,0.02,0.18
							l0.28,4.37c0.08,1.29-0.77,2.46-2.03,2.78c0,0-2.43,0.6-2.47,0.61c-0.03,0.01-0.07,0.01-0.11,0.02
							c-0.03,0.01-0.05,0.03-0.08,0.04c-0.1,0.05-0.2,0.09-0.3,0.13c-0.29,0.19-0.62,0.33-0.97,0.39c-0.17,0.03-0.34,0.05-0.52,0.05
							l-0.29,0c-0.09,0-0.18,0.01-0.27,0.02c-0.06,0.01-0.11,0.03-0.16,0.05c0.06,0.03,0.11,0.05,0.17,0.08
							c0.66,0.34,1.28,0.8,1.87,1.38c0.29,0.29,0.5,0.63,0.64,1.01c0.29,0.43,0.44,0.95,0.44,1.47l0,0.88c0,0.59-0.19,1.14-0.52,1.59
							c0.15,0.06,0.29,0.13,0.42,0.22c0.33,0.05,0.76,0.12,1.34,0.22c0.14,0.02,0.28,0.06,0.42,0.1l0.46,0.15l0.73,0
							c0.17,0,0.33,0.02,0.5,0.05c2.82,0.54,5.68,0.63,8.49,0.29c0.11-0.01,0.22-0.02,0.33-0.02l0.83,0c0,0,0.94-0.23,0.98-0.24
							c0.17-0.03,0.34-0.05,0.51-0.05l0.24,0c0.22-0.11,0.46-0.19,0.7-0.24c0.17-0.03,0.34-0.05,0.52-0.05l0.43,0
							C257.66,231.93,257.91,231.86,258.16,231.81z M265.41,180.44c-4.22,8.57-3.19,11.21-2.68,11.89c0.01,0.01,0.02,0.02,0.02,0.03
							c0.07-0.12,0.13-0.24,0.2-0.36c0.39-0.65,1.05-1.11,1.79-1.25c0.06-0.01,0.13-0.02,0.2-0.03c0.39-0.05,0.79,0,1.15,0.12
							c0-0.02-0.01-0.05-0.01-0.07c-0.01-0.1-0.01-0.19-0.02-0.29C266.08,188.62,265.86,185.26,265.41,180.44z"/>
						<path style="fill:#192228;" d="M296.32,97.94c0.02,0,0.04,0,0.05,0.01c-9.36,15.12-15.11,24.52-17.26,28.2
							c-1.17,1.94-1.76,3.2-1.76,3.78c-0.2,0.97,0.09,1.51,0.87,1.6c0.28,0.04,0.57,0.03,0.85-0.03c0.49-0.09,0.99-0.33,1.48-0.7
							c-0.78,0.78-2,1.94-3.65,3.48c-1.66,1.55-3.07,2.95-4.23,4.21c-1.17,1.26-2.05,2.57-2.63,3.92c0,0.2-0.1,0.49-0.29,0.87
							c0.76,3.69,2.02,6.7,3.76,9.04c1.16,1.56,2.03,3.31,2.61,5.25c0.58-0.39,1.26-0.77,2.04-1.16c-0.58,0.58-1.17,1.26-1.75,2.03
							l0,0.29c1.16,3.11,1.92,6.32,2.3,9.62c0.19,1.56,0.38,3.25,0.57,5.1c0.19,1.85,0.33,3.35,0.42,4.51
							c0.09,1.17,0.24,1.94,0.43,2.33c0.31,0.75,0.7,1.08,1.17,0.99c1-0.19,2.36-2.26,4.09-6.21l0.58-0.87
							c-1,8.93-1.31,15.82-0.93,20.67c0.18,2.72,1.14,8.64,2.86,17.77c-0.58-1.75-1.01-3.01-1.3-3.79c-0.29-0.77-0.82-1.5-1.6-2.19
							c-0.78-0.68-1.65-1.02-2.62-1.03c-0.19,0-0.38,0.02-0.56,0.05c-1.98,0.38-3.06,2.88-3.25,7.51c-0.2,1.56-0.26,3.89-0.16,6.99
							c0.09,3.11,0.13,5.05,0.13,5.82c-0.2,1.55-0.3,3.11-0.3,4.66c7.96-0.95,14.56-0.64,19.8,0.93c-1.36,0.19-4.37,0.72-9.03,1.58
							c-0.22,0.04-0.43,0.08-0.65,0.12c-4.34,0.83-7.62,1.8-9.85,2.91c-0.01,3.3,0.17,6.6,0.56,9.9c-0.58-1.55-1.16-2.52-1.74-2.92
							c-0.42-0.28-0.94-0.36-1.55-0.24c-0.24,0.05-0.5,0.12-0.78,0.23c-0.78,0.39-1.27,1.45-1.46,3.2c-0.2,1.75-0.2,3.11-0.01,4.08
							c0.58,2.14,0.57,4.91-0.02,8.3c-0.59,3.4-0.8,6.6-0.61,9.61c0.18,3.01,1.34,5.78,3.47,8.31c-0.78,0.58-1.36,1.21-1.75,1.89
							c-0.39,0.68-0.64,1.31-0.73,1.89c-0.1,0.58-0.1,1.26-0.01,2.04c0.09,0.78,0.24,1.41,0.43,1.89c0.19,0.49,0.48,1.17,0.87,2.04
							c0.38,0.87,0.58,1.51,0.58,1.89c1.74,4.47,2.7,7.48,2.89,9.04c1.15,7.38-0.33,15.14-4.43,23.28c0-0.19,0.1-0.48,0.29-0.87
							c0.19-0.58,0.29-1.06,0.3-1.46c0.59-1.75,1.07-3.49,1.47-5.24c0.98-5.24,0.02-8.05-2.89-8.45c-0.12-0.02-0.25-0.02-0.37,0.01
							c-1.08,0.21-2.32,2.04-3.72,5.52c-1.57,3.88-3.33,9.12-5.28,15.71c-0.59,1.94-2.06,6.88-4.41,14.84
							c-1.17,4.62-1.85,6.94-2.05,6.98c0,0,0,0,0,0c2.36-12.22,4.23-22.8,5.62-31.73c0.39-2.33,0.59-3.68,0.59-4.08
							c-0.36-0.72-0.85-1.03-1.47-0.91c-0.04,0.01-0.09,0.02-0.13,0.03c-0.68,0.19-1.31,0.68-1.9,1.45c0.39-0.97,1.07-2.47,2.05-4.51
							c0.97-2.04,1.76-3.83,2.34-5.38c0.59-1.55,0.88-3.1,0.89-4.66c0.4-6.41-0.84-10.97-3.75-13.7c-1.16-1.17-2.23-1.65-3.2-1.47
							c0,0,0,0,0,0c-0.78,0.19-1.46,0.58-2.04,1.16c-0.58,0.58-1.17,1.41-1.75,2.47c-0.59,1.07-1.27,1.99-2.05,2.76
							c6.66-23.66,7.18-36.96,1.56-39.89c0.78-0.77,1.46-1.55,2.04-2.32c-0.51,0-0.97,0.04-1.4,0.12c-0.23,0.04-0.44,0.1-0.64,0.16
							c-0.39,0-1.16,0-2.33-0.01c-0.15,0.07-0.34,0.13-0.58,0.18c-0.38,0.07-0.86,0.11-1.46,0.11c-0.2,0-0.39,0-0.58,0
							c-0.58,0-0.97,0-1.16,0l-3.2-0.3c-0.78,0-1.46,0-2.04-0.01c-0.28,0-0.54,0.02-0.78,0.07c-0.25,0.05-0.48,0.12-0.67,0.22
							c-0.2,0.19-0.29,0.49-0.29,0.87c0.19,0.58,0.87,1.27,2.03,2.04c0.97,0.98,3,2.15,6.11,3.51c-5.05-0.79-9.9-2.16-14.55-4.12
							c-0.2,0-0.49-0.1-0.87-0.29l-0.58-0.29l-1.16-0.59c-0.58-0.19-0.92-0.29-1.02-0.29c-0.1,0-0.63-0.29-1.6-0.88l-1.74-0.88
							c-0.2,0-1.36-0.68-3.49-2.05l-1.45-0.88l-1.45-0.88l-1.45-1.17l-0.58-0.29l-0.87-0.58l-2.61-2.34l-2.61-2.34
							c-0.39-0.39-0.92-0.88-1.6-1.46c-0.68-0.58-1.12-0.97-1.31-1.17l-0.58-0.58l-0.29-0.29l-0.29,0l0.29-0.58
							c0-0.58,0.1-1.16,0.3-1.75c0-0.39,0.05-0.97,0.15-1.75c0.1-0.77,0.25-1.36,0.44-1.75l0.59-4.37l0-0.29l0-0.29
							c0.19-0.19,0.29-0.39,0.29-0.58c0.19-0.39,0.39-0.77,0.59-1.16l0.88-2.33c-0.2,0.97-0.49,1.85-0.88,2.62
							c0,0.39-0.1,0.78-0.29,1.16c0,0.2-0.05,0.39-0.15,0.58c-0.1,0.2-0.15,0.39-0.15,0.58c0,1.16,0.09,2.43,0.28,3.79
							c0.38,1.75,1.35,2.53,2.91,2.34c0.06-0.01,0.12-0.02,0.17-0.03c1.31-0.25,2.71-1.31,4.2-3.16c0.19-0.39,0.48-0.87,0.88-1.45
							c0.19-0.19,0.39-0.48,0.58-0.87l0-0.29l0.29-0.58c0.78-0.97,1.56-2.23,2.34-3.78c0.39-0.58,0.78-1.26,1.17-2.04
							c0.19-0.39,0.39-0.77,0.59-1.16l0-0.58l0.29,0l0-0.29c0.39-0.77,0.88-1.84,1.46-3.2c1.36-3.1,2.24-5.04,2.64-5.82
							c3.12-6.2,5.66-12.6,7.62-19.2c0.39,0.39,0.48,0.93,0.29,1.6c-0.2,0.68-0.1,1.36,0.29,2.04c0.38,0.68,1.06,1.02,2.04,1.02
							c0.08,0,0.17-0.01,0.25-0.02c0.71-0.14,1.5-0.85,2.38-2.15c0.97-1.45,1.56-2.86,1.76-4.22c0.39-1.35,2.15-4.94,5.27-10.76
							c3.12-5.82,4.11-10.86,2.95-15.13c0.97-0.38,1.8-0.87,2.48-1.45c0.68-0.58,1.21-1.35,1.61-2.33c0.39-0.97,0.63-1.64,0.73-2.04
							c0.1-0.39,0.15-2.13,0.16-5.24c0.2-5.05,0.6-8.34,1.19-9.9c1.77-7.57,6.05-14.35,12.87-20.35c0,0.16-0.07,0.26-0.21,0.28
							c-0.03,0.01-0.06,0.01-0.09,0.01c-0.58,0.58-0.98,1.07-1.17,1.45c-1.17,1.55-2.24,3.1-3.22,4.65
							c-2.92,4.46-3.13,7.56-0.61,9.32c0.19-1.35,0.39-2.72,0.59-4.08c0.58,1.17,1.06,2.33,1.45,3.5c2.72-1.54,7.59-6.97,14.6-16.27
							c1.95-2.52,5.16-6.78,9.64-12.79C294.54,99.85,295.99,98.01,296.32,97.94 M240.14,221.86c-0.05,0-0.1,0.01-0.16,0.02
							c-0.18,0.04-0.42,0.13-0.72,0.27c-0.04,0-0.08,0-0.11,0.01c-0.16,0.03-0.32,0.12-0.47,0.28l-0.29,0
							c-0.28,0-0.54,0.02-0.79,0.07c-0.46,0.09-0.87,0.26-1.25,0.51c-0.98,0.78-1.46,1.74-1.46,2.91c0,0.2,0,0.39,0,0.58l0.29,0.29
							l0,0.29c0.77,0.2,1.35,0.39,1.75,0.59c0.39,0.2,0.77,0.49,1.16,0.88c0,0.2,0.09,0.39,0.29,0.58c0,0.2,0,0.49,0,0.87
							c-0.24,0.08-0.48,0.14-0.72,0.19c-0.34,0.07-0.68,0.1-1.02,0.1c-0.34,0-0.68,0.03-1.02,0.1c-0.24,0.05-0.49,0.11-0.73,0.19
							c-0.05,0-0.1,0.01-0.16,0.02c-0.18,0.04-0.42,0.13-0.72,0.27c-0.2,0.39-0.1,0.68,0.29,0.87c0.19,0.39,0.48,0.68,0.87,0.88
							c0.39,0.2,0.73,0.34,1.02,0.44c0.29,0.1,0.63,0.25,1.02,0.44c0.39,0.2,0.77,0.39,1.16,0.59c0.19,0,0.48,0,0.87,0l0.29,0
							l0.29,0.29c0.19,0,0.87,0.1,2.04,0.3l0.87,0.29l1.16,0c3.1,0.59,6.21,0.7,9.32,0.32l1.16,0l1.17-0.29c0.19,0,0.44,0,0.73,0
							c0.08,0,0.15-0.01,0.22-0.02c0.19-0.04,0.36-0.13,0.51-0.27l1.16,0c0.14-0.14,0.31-0.23,0.51-0.27
							c0.07-0.01,0.14-0.02,0.22-0.02c0.21,0,0.44-0.02,0.71-0.07c0.1-0.02,0.21-0.04,0.31-0.07c0.14-0.03,0.27-0.06,0.38-0.08
							c0.2-0.04,0.37-0.06,0.49-0.06l0.58-0.29l0.58,0l1.75-0.58l0.29,0c0.39-2.33,0.2-4.66-0.56-6.99
							c-0.77-2.72-2.02-5.34-3.76-7.87c4.28-2.9,6.03-6.97,5.27-12.22c0-0.39-0.14-1.41-0.43-3.06c-0.29-1.65-0.48-2.81-0.57-3.5
							c-0.1-0.68-0.05-1.65,0.15-2.91c0.19-1.26,0.59-2.37,1.17-3.35c0.19,0.2,0.44,0.58,0.72,1.17c0.29,0.58,0.53,1.02,0.72,1.31
							c0.19,0.29,0.39,0.54,0.58,0.73c0.28,0.17,0.53,0.23,0.74,0.19c0.53-0.1,0.87-0.84,1.01-2.22c0-0.97-0.09-2.33-0.28-4.08
							c0.01-2.52-0.37-7.47-1.13-14.85c-0.19-1.17-0.48-2.23-0.87-3.21c-6.63,11.05-8.69,18.23-6.17,21.53l-7.29,4.06
							c-4.28,1.93-7.29,4.83-9.05,8.71c-1.76,3.88-2.45,7.27-2.07,10.19l0.28,4.37C241.69,221.47,240.91,221.67,240.14,221.86
							M295.31,92.67c-2.4,0.46-3.52,1.77-7.66,7.65c-4.52,6.06-7.64,10.19-9.54,12.65c-0.72,0.95-1.4,1.84-2.04,2.67
							c-0.47-1.37-1.49-2.52-2.86-3.14c-1.03-0.47-2.16-0.59-3.23-0.38c-0.92,0.18-1.8,0.6-2.53,1.24
							c-7.54,6.64-12.41,14.33-14.47,22.85c-0.53,1.54-1.12,4.33-1.4,11.21c0,0.07,0,0.14,0,0.2c-0.01,2.59-0.05,3.7-0.07,4.16
							c-0.07,0.2-0.21,0.56-0.44,1.13c-0.08,0.2-0.14,0.27-0.14,0.27c-0.2,0.16-0.53,0.35-0.94,0.51c-2.54,1-3.91,3.75-3.2,6.38
							c0.78,2.89-0.06,6.66-2.5,11.2c-3.05,5.69-4.44,8.57-5.13,10.23c-1.04-0.52-2.25-0.7-3.42-0.47c-0.09,0.02-0.19,0.04-0.28,0.06
							c-1.84,0.46-3.31,1.86-3.85,3.68c-1.86,6.25-4.31,12.42-7.27,18.32c-0.27,0.53-0.86,1.76-2.75,6.07
							c-0.44,1.03-0.78,1.77-1.02,2.29c-0.59,0.74-0.98,1.61-1.12,2.55l-0.09,0.18c-0.28,0.55-0.56,1.05-0.83,1.45
							c-0.12,0.18-0.23,0.37-0.33,0.57c-0.06,0.11-0.11,0.22-0.16,0.32c-0.42-1.85-1.81-3.41-3.74-3.97
							c-0.84-0.24-1.69-0.27-2.5-0.12c-1.78,0.34-3.33,1.57-4.01,3.37l-0.78,2.06l-0.02,0.05c-0.15,0.3-0.3,0.6-0.45,0.89
							c-0.04,0.09-0.08,0.18-0.12,0.27c-0.47,0.81-0.73,1.73-0.73,2.68l0,0.23l-0.46,3.36c-0.24,0.71-0.42,1.51-0.54,2.45
							c-0.08,0.58-0.13,1.09-0.16,1.55c-0.1,0.39-0.18,0.79-0.23,1.19c-0.64,1.57-0.49,3.36,0.4,4.82c0.49,0.79,1.16,1.43,1.95,1.87
							c0.22,0.23,0.62,0.59,1.6,1.44c0.68,0.59,1.09,0.97,1.31,1.19c0.07,0.07,0.14,0.13,0.21,0.19l2.61,2.34l2.61,2.34
							c0.18,0.17,0.38,0.32,0.59,0.46l0.87,0.58c0.18,0.12,0.38,0.24,0.58,0.34l0.07,0.04l1.01,0.81c0.19,0.15,0.38,0.29,0.59,0.41
							l1.45,0.88l1.39,0.84c2.06,1.32,3.28,2.08,4.3,2.48l1.17,0.59c1.19,0.72,2.09,1.24,3.17,1.45l0.8,0.4l0.58,0.29
							c0.61,0.31,1.19,0.53,1.76,0.68c4.88,2,10.01,3.43,15.25,4.24c0.63,0.1,1.25,0.08,1.84-0.03c0.88-0.17,1.7-0.56,2.39-1.12
							c0.26,4.31-0.45,12.9-5.17,29.64c-0.66,2.35,0.34,4.84,2.45,6.08c1.16,0.68,2.48,0.88,3.73,0.64c1.02-0.2,1.99-0.69,2.77-1.46
							c0.99-0.98,1.87-2.12,2.62-3.39c1.1,2.19,1.19,5.43,1.03,8.01c-0.01,0.11-0.01,0.22-0.01,0.32c0,0.91-0.18,1.82-0.54,2.77
							c-0.52,1.38-1.25,3.05-2.17,4.96c-1.01,2.1-1.75,3.72-2.19,4.82c-0.99,2.47-0.02,5.3,2.27,6.63
							c-1.34,8.45-3.11,18.39-5.28,29.58c-0.3,1.57,0.11,3.2,1.13,4.44c1.02,1.24,2.54,1.95,4.15,1.94c0.33,0,0.67-0.03,1-0.1
							c3.36-0.65,4.22-3.58,4.8-5.53c0.36-1.22,0.83-3,1.42-5.3c2.36-7.98,3.79-12.79,4.37-14.7c0.34-1.14,0.67-2.23,0.99-3.29
							c0.72,0.84,1.7,1.46,2.83,1.73c0.76,0.18,1.53,0.19,2.26,0.05c1.6-0.31,3.01-1.33,3.78-2.86c4.58-9.1,6.24-17.99,4.95-26.44
							c-0.18-1.36-0.7-3.72-2.97-9.63c-0.15-0.81-0.45-1.68-0.9-2.71c-0.37-0.83-0.63-1.44-0.78-1.83c0,0-0.06-0.17-0.1-0.59
							c-0.03-0.22-0.03-0.36-0.03-0.44c0.02-0.04,0.05-0.1,0.09-0.17c0,0,0,0,0,0c0,0,0.09-0.1,0.31-0.27
							c1.19-0.88,1.96-2.22,2.13-3.69c0.17-1.47-0.27-2.94-1.23-4.08c-1.38-1.64-2.11-3.33-2.22-5.17c-0.16-2.58,0.02-5.39,0.54-8.36
							c0.54-3.11,0.67-5.82,0.38-8.21c0.3-0.01,0.61-0.04,0.91-0.1c0.08-0.02,0.16-0.03,0.24-0.05c2.64-0.63,4.39-3.14,4.08-5.83
							c-0.22-1.86-0.36-3.74-0.45-5.63c1.35-0.41,3.11-0.85,5.42-1.29l0.61-0.11c5.66-1.05,7.91-1.41,8.81-1.54
							c0.09-0.01,0.18-0.03,0.27-0.04c2.37-0.45,4.15-2.44,4.33-4.86c0.19-2.51-1.4-4.82-3.81-5.54c-4.43-1.32-9.69-1.87-15.68-1.62
							c-0.02-1.04-0.06-2.59-0.12-4.79c-0.05-1.7-0.05-3-0.02-3.98c1.22,1.48,3.19,2.24,5.15,1.86c0.11-0.02,0.22-0.05,0.33-0.08
							c2.74-0.71,4.45-3.41,3.93-6.19c-2.09-11.09-2.67-15.44-2.78-17.14c-0.35-4.55-0.05-11.16,0.91-19.71
							c0.27-2.46-1.17-4.78-3.49-5.63c-0.94-0.34-1.92-0.41-2.86-0.23c-0.26,0.05-0.51,0.12-0.76,0.2c-0.06-0.49-0.11-0.96-0.17-1.42
							c-0.31-2.71-0.87-5.39-1.65-8c1.45-1.85,1.53-4.48,0.13-6.43c-0.83-1.16-2.05-1.89-3.37-2.14c-0.41-0.7-0.85-1.37-1.33-2.02
							c-1.03-1.38-1.85-3.18-2.44-5.36c0.32-0.54,0.74-1.08,1.24-1.62c1.07-1.16,2.41-2.48,3.96-3.94c1.74-1.63,2.97-2.8,3.76-3.6
							c1.99-1.98,2.12-5.15,0.3-7.28c2.62-4.41,8.09-13.32,16.29-26.56c1.32-2.13,0.99-4.89-0.8-6.65
							C298.88,92.89,297.04,92.34,295.31,92.67L295.31,92.67z M243.12,226.64c0.21-0.05,0.41-0.1,0.62-0.15
							c2.52-0.62,4.25-2.97,4.08-5.55l-0.28-4.37c-0.01-0.12-0.02-0.24-0.03-0.36c-0.24-1.86,0.32-4.37,1.63-7.27
							c1.21-2.67,3.3-4.65,6.37-6.03c0.14-0.06,0.27-0.13,0.4-0.2l2.81-1.57c0.11,0.69,0.27,1.63,0.49,2.92
							c0.27,1.57,0.34,2.13,0.35,2.28c0.01,0.21,0.02,0.42,0.05,0.63c0.47,3.23-0.39,5.26-2.98,7.01c-1.18,0.8-2,2.04-2.26,3.45
							c-0.26,1.4,0.04,2.86,0.85,4.03c1.4,2.03,2.41,4.15,3.02,6.3c0.02,0.07,0.04,0.14,0.07,0.21c0.12,0.37,0.22,0.74,0.3,1.1
							c-0.33,0.01-0.65,0.05-0.97,0.11c-0.23,0.04-0.46,0.1-0.68,0.17c-0.34,0-0.67,0.03-0.99,0.1c-0.25,0.05-0.5,0.12-0.74,0.2
							c-0.24,0.01-0.48,0.04-0.71,0.09c-0.09,0.02-0.18,0.04-0.27,0.06l-0.52,0.13l-0.5,0c-0.22,0-0.45,0.01-0.67,0.04
							c-2.53,0.31-5.11,0.22-7.66-0.26c-0.33-0.06-0.66-0.09-0.99-0.09l-0.17,0l0-0.46C243.74,228.27,243.52,227.41,243.12,226.64
							L243.12,226.64z"/>
					</g>
				</g>
			</g>
			<g>
				<g>
					<path style="fill:#D76A5B;" d="M275.02,243.2c-0.78,0.39-1.27,1.45-1.46,3.2c-0.2,1.75-0.2,3.11-0.01,4.08
						c0.58,2.14,0.57,4.91-0.02,8.3c-0.59,3.4-0.8,6.6-0.61,9.61c0.18,3.01,1.34,5.78,3.47,8.31c-0.78,0.58-1.36,1.21-1.75,1.89
						c-0.39,0.68-0.64,1.31-0.73,1.89c-0.1,0.58-0.1,1.26-0.01,2.04c0.09,0.78,0.24,1.41,0.43,1.89c0.19,0.49,0.48,1.17,0.87,2.04
						c0.38,0.87,0.58,1.51,0.58,1.89c1.74,4.47,2.7,7.48,2.89,9.04c1.15,7.38-0.33,15.14-4.43,23.28c0-0.19,0.1-0.48,0.29-0.87
						c0.19-0.58,0.29-1.06,0.3-1.46c0.59-1.75,1.07-3.49,1.47-5.24c0.98-5.24,0.02-8.05-2.89-8.45c-1.16-0.19-2.53,1.64-4.09,5.52
						c-1.57,3.88-3.33,9.12-5.28,15.71c-0.59,1.94-2.06,6.88-4.41,14.84c-1.18,4.66-1.87,6.98-2.06,6.98
						c2.36-12.22,4.23-22.8,5.62-31.73c0.39-2.33,0.59-3.68,0.59-4.08c-0.39-0.77-0.92-1.07-1.6-0.88c-0.68,0.19-1.31,0.68-1.9,1.45
						c0.39-0.97,1.07-2.47,2.05-4.51c0.97-2.04,1.76-3.83,2.34-5.38c0.59-1.55,0.88-3.1,0.89-4.66c0.4-6.41-0.84-10.97-3.75-13.7
						c-1.16-1.17-2.23-1.65-3.2-1.46c-0.78,0.19-1.46,0.58-2.04,1.16s-1.17,1.41-1.75,2.47c-0.59,1.07-1.27,1.99-2.05,2.76
						c6.66-23.66,7.18-36.96,1.56-39.89c0.78-0.77,1.46-1.55,2.04-2.32c-0.78,0-1.46,0.1-2.04,0.29c-0.39,0-1.16,0-2.33-0.01
						c-0.39,0.19-1.07,0.29-2.04,0.29c-0.2,0-0.39,0-0.58,0c-0.58,0-0.97,0-1.16,0l-3.2-0.3c-0.78,0-1.46,0-2.04-0.01
						s-1.07,0.1-1.46,0.29c-0.2,0.19-0.29,0.49-0.29,0.87c0.19,0.58,0.87,1.27,2.03,2.04c0.97,0.98,3,2.15,6.11,3.51
						c-5.05-0.79-9.9-2.16-14.55-4.12c-0.2,0-0.49-0.1-0.87-0.29l-0.58-0.29l-1.16-0.59c-0.58-0.19-0.92-0.29-1.02-0.29
						c-0.1,0-0.63-0.29-1.6-0.88l-1.74-0.88c-0.2,0-1.36-0.68-3.49-2.05l-1.45-0.88l-1.45-0.88l-1.45-1.17l-0.58-0.29l-0.87-0.58
						l-2.61-2.34l-2.61-2.34c-0.39-0.39-0.92-0.88-1.6-1.46c-0.68-0.58-1.12-0.97-1.31-1.17l-0.58-0.58l-0.29-0.29l-0.29,0l0.29-0.58
						c0-0.58,0.1-1.16,0.3-1.75c0-0.39,0.05-0.97,0.15-1.75c0.1-0.77,0.25-1.36,0.44-1.75l0.59-4.37l0-0.29l0-0.29
						c0.19-0.19,0.29-0.39,0.29-0.58c0.19-0.39,0.39-0.77,0.59-1.16l0.88-2.33c-0.2,0.97-0.49,1.85-0.88,2.62
						c0,0.39-0.1,0.78-0.29,1.16c0,0.2-0.05,0.39-0.15,0.58c-0.1,0.2-0.15,0.39-0.15,0.58c0,1.16,0.09,2.43,0.28,3.79
						c0.38,1.75,1.35,2.53,2.91,2.34c1.36-0.19,2.82-1.25,4.38-3.19c0.19-0.39,0.48-0.87,0.88-1.45c0.19-0.19,0.39-0.48,0.58-0.87
						l0-0.29l0.29-0.58c0.78-0.97,1.56-2.23,2.34-3.78c0.39-0.58,0.78-1.26,1.17-2.04c0.19-0.39,0.39-0.77,0.59-1.16l0-0.58l0.29,0
						l0-0.29c0.39-0.77,0.88-1.84,1.46-3.2c1.36-3.1,2.24-5.04,2.64-5.82c3.12-6.2,5.66-12.6,7.62-19.2c0.39,0.39,0.48,0.93,0.29,1.6
						c-0.2,0.68-0.1,1.36,0.29,2.04c0.38,0.68,1.06,1.02,2.04,1.02c0.77,0,1.65-0.72,2.63-2.18c0.97-1.45,1.56-2.86,1.76-4.22
						c0.39-1.35,2.15-4.94,5.27-10.76c3.12-5.82,4.11-10.86,2.95-15.13c0.97-0.38,1.8-0.87,2.48-1.45c0.68-0.58,1.21-1.35,1.61-2.33
						c0.39-0.97,0.63-1.64,0.73-2.04c0.1-0.39,0.15-2.13,0.16-5.24c0.2-5.05,0.6-8.34,1.19-9.9c1.77-7.57,6.05-14.35,12.87-20.35
						c0,0.2-0.1,0.29-0.29,0.29c-0.58,0.58-0.98,1.07-1.17,1.45c-1.17,1.55-2.24,3.1-3.22,4.65c-2.92,4.46-3.13,7.56-0.61,9.32
						c0.19-1.35,0.39-2.72,0.59-4.08c0.58,1.17,1.06,2.33,1.45,3.5c2.72-1.54,7.59-6.97,14.6-16.27c1.95-2.52,5.16-6.78,9.64-12.79
						c2.73-3.87,4.19-5.71,4.38-5.52c-9.36,15.12-15.11,24.52-17.26,28.2c-1.17,1.94-1.76,3.2-1.76,3.78
						c-0.2,0.97,0.09,1.51,0.87,1.6c0.77,0.1,1.55-0.14,2.33-0.72c-0.78,0.78-2,1.94-3.65,3.48c-1.66,1.55-3.07,2.95-4.23,4.21
						c-1.17,1.26-2.05,2.57-2.63,3.92c0,0.2-0.1,0.49-0.29,0.87c0.76,3.69,2.02,6.7,3.76,9.04c1.16,1.56,2.03,3.31,2.61,5.25
						c0.58-0.39,1.26-0.77,2.04-1.16c-0.58,0.58-1.17,1.26-1.75,2.03l0,0.29c1.16,3.11,1.92,6.32,2.3,9.62
						c0.19,1.56,0.38,3.25,0.57,5.1c0.19,1.85,0.33,3.35,0.42,4.51c0.09,1.16,0.24,1.94,0.43,2.33c0.96,2.33,2.71,0.59,5.26-5.23
						l0.58-0.87c-1,8.93-1.31,15.82-0.93,20.67c0.18,2.72,1.14,8.64,2.86,17.77c-0.58-1.75-1.01-3.01-1.3-3.79
						c-0.29-0.77-0.82-1.5-1.6-2.19c-0.78-0.68-1.65-1.02-2.62-1.03c-2.33-0.01-3.6,2.52-3.81,7.56c-0.2,1.56-0.26,3.89-0.16,6.99
						c0.09,3.11,0.13,5.05,0.13,5.82c-0.2,1.55-0.3,3.11-0.3,4.66c7.96-0.95,14.56-0.64,19.8,0.93c-1.36,0.19-4.37,0.72-9.03,1.58
						c-4.66,0.86-8.16,1.87-10.49,3.03c-0.01,3.3,0.17,6.6,0.56,9.9c-0.58-1.55-1.16-2.52-1.74-2.92
						C276.77,242.82,275.99,242.82,275.02,243.2z M267.28,196.59c0.97,0.58,1.55-0.09,1.75-2.03c0-0.97-0.09-2.33-0.28-4.08
						c0.01-2.52-0.37-7.47-1.13-14.85c-0.19-1.17-0.48-2.23-0.87-3.21c-6.63,11.05-8.69,18.23-6.17,21.53l-7.29,4.06
						c-4.28,1.93-7.29,4.83-9.05,8.71c-1.76,3.88-2.45,7.27-2.07,10.19l0.28,4.37c-0.78,0.19-1.56,0.39-2.33,0.58
						c-0.2,0-0.49,0.1-0.87,0.29c-0.2,0-0.39,0.1-0.58,0.29l-0.29,0c-0.78,0-1.46,0.19-2.04,0.58c-0.98,0.78-1.46,1.74-1.46,2.91
						c0,0.2,0,0.39,0,0.58l0.29,0.29l0,0.29c0.77,0.2,1.35,0.39,1.75,0.59c0.39,0.2,0.77,0.49,1.16,0.88c0,0.2,0.09,0.39,0.29,0.58
						c0,0.2,0,0.49,0,0.87c-0.58,0.19-1.17,0.29-1.75,0.29c-0.58,0-1.16,0.1-1.75,0.29c-0.2,0-0.49,0.1-0.87,0.29
						c-0.2,0.39-0.1,0.68,0.29,0.87c0.19,0.39,0.48,0.68,0.87,0.88c0.39,0.2,0.73,0.34,1.02,0.44c0.29,0.1,0.63,0.25,1.02,0.44
						c0.39,0.2,0.77,0.39,1.16,0.59c0.19,0,0.48,0,0.87,0l0.29,0l0.29,0.29c0.19,0,0.87,0.1,2.04,0.3l0.87,0.29l1.16,0
						c3.1,0.59,6.21,0.7,9.32,0.32l1.16,0l1.17-0.29c0.19,0,0.44,0,0.73,0c0.29,0,0.53-0.09,0.73-0.29l1.16,0
						c0.19-0.19,0.44-0.29,0.73-0.29c0.29,0,0.63-0.04,1.02-0.14c0.39-0.09,0.68-0.14,0.87-0.14l0.58-0.29l0.58,0l1.75-0.58l0.29,0
						c0.39-2.33,0.2-4.66-0.56-6.99c-0.77-2.72-2.02-5.34-3.76-7.87c4.28-2.9,6.03-6.97,5.27-12.22c0-0.39-0.14-1.41-0.43-3.06
						c-0.29-1.65-0.48-2.81-0.57-3.5c-0.1-0.68-0.05-1.65,0.15-2.91c0.19-1.26,0.59-2.37,1.17-3.35c0.19,0.2,0.44,0.58,0.72,1.17
						s0.53,1.02,0.72,1.31C266.89,196.16,267.09,196.4,267.28,196.59z"/>
				</g>
			</g>
		</g>
	</g>
	<g id="Textures">
	</g>
</g>
</svg>
